<svg width="64" height="64" viewBox="0 0 64 64" fill="none" xmlns="http://www.w3.org/2000/svg">
<g clip-path="url(#clip0_155_5)">
<path d="M32 0C49.6731 0 64 14.3269 64 32C64 49.6731 49.6731 64 32 64C14.3269 64 0 49.6731 0 32C0 14.3269 14.3269 0 32 0ZM32.5713 37.5713C21.5214 37.5713 12.5714 42.0464 12.5713 47.5713V52.5713H52.5713V47.5713C52.5711 42.0464 43.6212 37.5713 32.5713 37.5713ZM32.5713 12.5713C29.9192 12.5713 27.3753 13.6247 25.5 15.5C23.6247 17.3753 22.5713 19.9192 22.5713 22.5713C22.5713 25.2234 23.6247 27.7672 25.5 29.6426C27.3753 31.5179 29.9192 32.5713 32.5713 32.5713C35.2235 32.5713 37.7672 31.5179 39.6426 29.6426C41.5179 27.7672 42.5713 25.2235 42.5713 22.5713C42.5713 19.9192 41.5179 17.3753 39.6426 15.5C37.7672 13.6247 35.2234 12.5713 32.5713 12.5713Z" fill="currentColor"/>
</g>
<defs>
<clipPath id="clip0_155_5">
<rect width="64" height="64" fill="currentColor"/>
</clipPath>
</defs>
</svg>
