<svg width="64" height="64" viewBox="0 0 64 64" fill="none" xmlns="http://www.w3.org/2000/svg">
<rect width="64" height="64" fill="#737373"/>
<path d="M32 10C35.5804 10 39.0142 11.4223 41.5459 13.9541C44.0777 16.4858 45.5 19.9196 45.5 23.5C45.5 27.0804 44.0777 30.5142 41.5459 33.0459C39.0142 35.5777 35.5804 37 32 37C28.4196 37 24.9858 35.5777 22.4541 33.0459C19.9223 30.5142 18.5 27.0804 18.5 23.5C18.5 19.9196 19.9223 16.4858 22.4541 13.9541C24.9858 11.4223 28.4196 10 32 10ZM32 43.75C46.9175 43.75 59 49.7912 59 57.25V64H5V57.25C5 49.7912 17.0825 43.75 32 43.75Z" fill="white"/>
</svg>
