<svg width="64" height="64" viewBox="0 0 64 64" fill="none" xmlns="http://www.w3.org/2000/svg">
<path d="M32 4C47.464 4 60 16.536 60 32C60 47.464 47.464 60 32 60C16.536 60 4 47.464 4 32C4 16.536 16.536 4 32 4ZM32.5 36.875C22.8312 36.875 15 40.7906 15 45.625V50H50V45.625C50 40.7906 42.1688 36.875 32.5 36.875ZM32.5 15C30.1794 15 27.9534 15.9216 26.3125 17.5625C24.6716 19.2034 23.75 21.4294 23.75 23.75C23.75 26.0706 24.6716 28.2966 26.3125 29.9375C27.9534 31.5784 30.1794 32.5 32.5 32.5C34.8206 32.5 37.0466 31.5784 38.6875 29.9375C40.3284 28.2966 41.25 26.0706 41.25 23.75C41.25 21.4294 40.3284 19.2034 38.6875 17.5625C37.0466 15.9216 34.8206 15 32.5 15Z" fill="currentColor"/>
</svg>
