<svg width="64" height="64" viewBox="0 0 64 64" fill="none" xmlns="http://www.w3.org/2000/svg">
<path fill-rule="evenodd" clip-rule="evenodd" d="M44.2443 17.5127C40.8988 14.3709 36.7098 12.7418 31.997 12.7418C23.6774 12.7418 16.6084 18.3559 14.0774 25.9192L14.08 25.9211C13.44 27.8411 13.0617 29.8774 13.0617 32.0013C13.0617 34.1252 13.44 36.1614 14.08 38.0814L14.0653 38.0928L14.0764 38.1085C16.6075 45.6722 23.6764 51.2867 31.9964 51.2867C36.3016 51.2867 39.938 50.1229 42.7889 48.2029L53.1743 56.2612C47.8797 61.1483 40.6361 63.9993 31.9964 63.9993C19.4874 63.9993 8.69543 56.7846 3.42999 46.3411L3.431 46.3403C1.25022 42.0358 1.7643e-05 37.1785 1.7643e-05 32.0016C1.7643e-05 26.8236 1.25077 21.9653 3.43244 17.6601L3.42999 17.6582C8.69543 7.18544 19.488 0 31.997 0C40.6371 0 47.8514 3.17111 53.4078 8.3492L44.2443 17.5127ZM32 38.5727V26.18L62.138 26.1803C62.5163 28.2747 62.7198 30.4567 62.7198 32.7258C62.7198 42.4712 59.2289 50.6749 53.178 56.2602L42.7926 48.2019C46.1962 45.9329 48.4655 42.5582 49.2218 38.5727H32Z" fill="currentColor"/>
</svg>
