<svg width="64" height="64" viewBox="0 0 64 64" fill="none" xmlns="http://www.w3.org/2000/svg">
<path d="M31.9995 26.1817V38.5745H49.2213C48.465 42.5599 46.1957 45.9346 42.7921 48.2037L53.1775 56.2619C59.2284 50.6766 62.7193 42.4729 62.7193 32.7275C62.7193 30.4585 62.5158 28.2764 62.1375 26.1821L31.9995 26.1817Z" fill="#BFBFBF"/>
<path d="M14.0658 38.0907L11.7235 39.8837L3.43243 46.3418C8.69787 56.7853 19.4898 64 31.9988 64C40.6386 64 47.8821 61.1491 53.1768 56.2619L42.7914 48.2037C39.9405 50.1237 36.3041 51.2874 31.9988 51.2874C23.6788 51.2874 16.61 45.6729 14.0789 38.1092L14.0658 38.0907Z" fill="#BFBFBF"/>
<path d="M3.43248 17.6582C1.25078 21.9635 0 26.8217 0 31.9998C0 37.1779 1.25078 42.0362 3.43248 46.3414C3.43248 46.3703 14.0799 38.0796 14.0799 38.0796C13.4399 36.1596 13.0616 34.1234 13.0616 31.9995C13.0616 29.8755 13.4399 27.8393 14.0799 25.9193L3.43248 17.6582Z" fill="#BFBFBF"/>
<path d="M31.9995 12.7418C36.7122 12.7418 40.9013 14.3709 44.2467 17.5127L53.4103 8.3492C47.8539 3.17111 40.6396 0 31.9995 0C19.4905 0 8.69788 7.18544 3.43243 17.6582L14.0796 25.92C16.6103 18.3563 23.6795 12.7418 31.9995 12.7418Z" fill="#BFBFBF"/>
</svg>
