<svg width="148" height="180" viewBox="0 0 148 180" fill="none" xmlns="http://www.w3.org/2000/svg">
<path fill-rule="evenodd" clip-rule="evenodd" d="M122.52 22.5011C135.188 35.1692 135.188 55.7083 122.52 68.3764L73.7777 117.119L73.5194 116.861L73.2436 117.136L24.5011 68.3939C11.833 55.7257 11.833 35.1867 24.5011 22.5186C37.1692 9.85046 57.7083 9.85046 70.3764 22.5186L73.5019 25.6441L76.645 22.5011C89.3131 9.83297 109.852 9.83298 122.52 22.5011Z" fill="#FF2400"/>
<path d="M43.0625 160H38.7188V150.141H32.2812V160H27.9219V137.25H32.2812V146.578H38.7188V137.25H43.0625V160ZM57.9844 160C57.8802 159.792 57.7917 159.552 57.7188 159.281C57.6458 159.01 57.5833 158.724 57.5312 158.422C57.2917 158.682 57.0156 158.927 56.7031 159.156C56.3906 159.385 56.0469 159.583 55.6719 159.75C55.2865 159.927 54.8646 160.062 54.4062 160.156C53.9479 160.26 53.4531 160.312 52.9219 160.312C52.0573 160.312 51.2604 160.188 50.5312 159.938C49.8125 159.688 49.1927 159.339 48.6719 158.891C48.151 158.443 47.7448 157.911 47.4531 157.297C47.1615 156.672 47.0156 155.995 47.0156 155.266C47.0156 154.328 47.1979 153.5 47.5625 152.781C47.9271 152.052 48.474 151.453 49.2031 150.984C49.8594 150.557 50.6667 150.234 51.625 150.016C52.5938 149.786 53.7031 149.672 54.9531 149.672H57.375V148.672C57.375 148.276 57.3125 147.922 57.1875 147.609C57.0625 147.286 56.875 147.01 56.625 146.781C56.3646 146.542 56.0365 146.359 55.6406 146.234C55.2552 146.099 54.8021 146.031 54.2812 146.031C53.8229 146.031 53.4271 146.089 53.0938 146.203C52.7604 146.307 52.4896 146.458 52.2812 146.656C52.0938 146.833 51.9531 147.047 51.8594 147.297C51.776 147.547 51.7344 147.823 51.7344 148.125H47.3906C47.3906 147.406 47.5469 146.724 47.8594 146.078C48.1823 145.432 48.651 144.865 49.2656 144.375C49.8698 143.885 50.6094 143.5 51.4844 143.219C52.3698 142.927 53.3802 142.781 54.5156 142.781C55.5365 142.781 56.4844 142.906 57.3594 143.156C58.2448 143.406 59.0104 143.776 59.6562 144.266C60.3021 144.755 60.8073 145.375 61.1719 146.125C61.5365 146.865 61.7188 147.724 61.7188 148.703V155.953C61.7188 156.859 61.776 157.609 61.8906 158.203C62.0052 158.797 62.1719 159.307 62.3906 159.734V160H57.9844ZM53.8438 156.953C54.2812 156.953 54.6875 156.901 55.0625 156.797C55.4375 156.693 55.776 156.557 56.0781 156.391C56.3802 156.224 56.6406 156.036 56.8594 155.828C57.0781 155.609 57.25 155.391 57.375 155.172V152.266H55.1562C54.4792 152.266 53.901 152.333 53.4219 152.469C52.9427 152.594 52.5521 152.771 52.25 153C51.9479 153.24 51.724 153.526 51.5781 153.859C51.4323 154.182 51.3594 154.536 51.3594 154.922C51.3594 155.224 51.4115 155.505 51.5156 155.766C51.6302 156.016 51.7917 156.229 52 156.406C52.2083 156.573 52.4635 156.708 52.7656 156.812C53.0781 156.906 53.4375 156.953 53.8438 156.953ZM81.875 151.719C81.875 152.531 81.8177 153.302 81.7031 154.031C81.5885 154.75 81.4219 155.417 81.2031 156.031C80.9635 156.708 80.6458 157.323 80.25 157.875C79.8646 158.427 79.4062 158.885 78.875 159.25C78.3958 159.594 77.8542 159.854 77.25 160.031C76.6562 160.219 76 160.312 75.2812 160.312C74.625 160.312 74.026 160.229 73.4844 160.062C72.9531 159.906 72.474 159.672 72.0469 159.359C71.8177 159.203 71.6042 159.031 71.4062 158.844C71.2083 158.646 71.0208 158.432 70.8438 158.203L70.6406 160H66.7344V136H71.0781V144.625C71.2865 144.385 71.5104 144.167 71.75 143.969C71.9896 143.76 72.2448 143.583 72.5156 143.438C72.901 143.219 73.3177 143.057 73.7656 142.953C74.224 142.839 74.7188 142.781 75.25 142.781C75.9792 142.781 76.6458 142.875 77.25 143.062C77.8646 143.25 78.4115 143.521 78.8906 143.875C79.276 144.146 79.625 144.474 79.9375 144.859C80.25 145.234 80.526 145.646 80.7656 146.094C81.1406 146.812 81.4167 147.62 81.5938 148.516C81.7812 149.411 81.875 150.37 81.875 151.391V151.719ZM77.5312 151.391C77.5312 150.943 77.5104 150.51 77.4688 150.094C77.4271 149.677 77.3594 149.286 77.2656 148.922C77.151 148.495 77 148.115 76.8125 147.781C76.6354 147.438 76.3646 147.125 76 146.844C75.7604 146.667 75.4896 146.536 75.1875 146.453C74.8854 146.359 74.5417 146.312 74.1562 146.312C73.6354 146.312 73.1771 146.385 72.7812 146.531C72.3854 146.677 72.0469 146.891 71.7656 147.172C71.6302 147.307 71.5052 147.464 71.3906 147.641C71.276 147.807 71.1719 147.99 71.0781 148.188V154.922C71.2031 155.182 71.3438 155.422 71.5 155.641C71.6667 155.849 71.8594 156.031 72.0781 156.188C72.3385 156.385 72.6406 156.536 72.9844 156.641C73.3385 156.745 73.7396 156.797 74.1875 156.797C74.5729 156.797 74.9219 156.75 75.2344 156.656C75.5469 156.562 75.8177 156.432 76.0469 156.266C76.3698 156.036 76.6302 155.74 76.8281 155.375C77.0365 155 77.1927 154.578 77.2969 154.109C77.3802 153.766 77.4375 153.391 77.4688 152.984C77.5104 152.578 77.5312 152.156 77.5312 151.719V151.391ZM87.0156 143.094H96.2188V156.469H100.797V160H87.0156V156.469H91.8281V146.641H87.0156V143.094ZM91.5156 138.766C91.5156 138.432 91.5729 138.125 91.6875 137.844C91.8125 137.552 91.9844 137.302 92.2031 137.094C92.4219 136.896 92.6823 136.74 92.9844 136.625C93.2969 136.51 93.6406 136.453 94.0156 136.453C94.7865 136.453 95.3958 136.672 95.8438 137.109C96.3021 137.536 96.5312 138.089 96.5312 138.766C96.5312 139.443 96.3021 140 95.8438 140.438C95.3958 140.865 94.7865 141.078 94.0156 141.078C93.6406 141.078 93.2969 141.021 92.9844 140.906C92.6823 140.792 92.4219 140.63 92.2031 140.422C91.9844 140.224 91.8125 139.984 91.6875 139.703C91.5729 139.411 91.5156 139.099 91.5156 138.766ZM113.047 138.953V143.094H119.359V146.297H113.047V153.562C113.047 154.177 113.115 154.693 113.25 155.109C113.396 155.516 113.599 155.839 113.859 156.078C114.12 156.328 114.432 156.505 114.797 156.609C115.172 156.714 115.589 156.766 116.047 156.766C116.38 156.766 116.719 156.75 117.062 156.719C117.417 156.688 117.755 156.646 118.078 156.594C118.391 156.552 118.682 156.505 118.953 156.453C119.234 156.401 119.474 156.349 119.672 156.297L120.094 159.281C119.792 159.458 119.438 159.615 119.031 159.75C118.625 159.875 118.193 159.979 117.734 160.062C117.276 160.146 116.797 160.208 116.297 160.25C115.807 160.302 115.323 160.328 114.844 160.328C113.917 160.328 113.073 160.208 112.312 159.969C111.562 159.719 110.922 159.333 110.391 158.812C109.849 158.302 109.432 157.651 109.141 156.859C108.849 156.057 108.703 155.099 108.703 153.984V146.297H104.844V143.094H108.703V138.953H113.047Z" fill="#1A1A1A"/>
</svg>
