<svg width="64" height="64" viewBox="0 0 64 64" fill="none" xmlns="http://www.w3.org/2000/svg">
<path d="M32 45.3333C29.04 45.3333 26.6667 42.9333 26.6667 40C26.6667 37.04 29.04 34.6667 32 34.6667C33.4145 34.6667 34.7711 35.2286 35.7713 36.2288C36.7715 37.2289 37.3334 38.5855 37.3334 40C37.3334 41.4145 36.7715 42.771 35.7713 43.7712C34.7711 44.7714 33.4145 45.3333 32 45.3333ZM48 53.3333V26.6667H16V53.3333H48ZM48 21.3333C49.4145 21.3333 50.7711 21.8952 51.7713 22.8954C52.7715 23.8956 53.3334 25.2522 53.3334 26.6667V53.3333C53.3334 54.7478 52.7715 56.1044 51.7713 57.1046C50.7711 58.1048 49.4145 58.6667 48 58.6667H16C13.04 58.6667 10.6667 56.2667 10.6667 53.3333V26.6667C10.6667 23.7067 13.04 21.3333 16 21.3333H18.6667V16C18.6667 12.4638 20.0714 9.07238 22.5719 6.5719C25.0724 4.07141 28.4638 2.66666 32 2.66666C33.751 2.66666 35.4848 3.01153 37.1025 3.6816C38.7201 4.35166 40.19 5.33379 41.4281 6.5719C42.6662 7.81001 43.6484 9.27987 44.3184 10.8975C44.9885 12.5152 45.3334 14.249 45.3334 16V21.3333H48ZM32 7.99999C29.8783 7.99999 27.8435 8.84284 26.3432 10.3431C24.8429 11.8434 24 13.8783 24 16V21.3333H40V16C40 13.8783 39.1572 11.8434 37.6569 10.3431C36.1566 8.84284 34.1218 7.99999 32 7.99999Z" fill="currentColor"/>
</svg>
