<svg width="64" height="64" viewBox="0 0 64 64" fill="none" xmlns="http://www.w3.org/2000/svg">
<path d="M44.16 14.5067L40.2934 18.3733C44.9067 21.1733 48 26.2133 48 32C48 36.2435 46.3143 40.3131 43.3137 43.3137C40.3131 46.3143 36.2435 48 32 48C27.7566 48 23.6869 46.3143 20.6863 43.3137C17.6857 40.3131 16 36.2435 16 32C16 26.2133 19.0934 21.1733 23.68 18.3467L19.84 14.5067C14.2934 18.3467 10.6667 24.7467 10.6667 32C10.6667 37.658 12.9143 43.0842 16.9151 47.0849C20.9159 51.0857 26.3421 53.3333 32 53.3333C37.658 53.3333 43.0842 51.0857 47.085 47.0849C51.0857 43.0842 53.3334 37.658 53.3334 32C53.3334 24.7467 49.7067 18.3467 44.16 14.5067ZM34.6667 8H29.3334V34.6667H34.6667" fill="currentColor"/>
</svg>
