<svg width="64" height="64" viewBox="0 0 64 64" fill="none" xmlns="http://www.w3.org/2000/svg">
<path d="M32 22.4C34.6169 22.4 37.1266 23.4114 38.9771 25.2118C40.8275 27.0121 41.8671 29.4539 41.8671 32C41.8671 34.5461 40.8275 36.9879 38.9771 38.7882C37.1266 40.5886 34.6169 41.6 32 41.6C29.3831 41.6 26.8734 40.5886 25.0229 38.7882C23.1725 36.9879 22.1329 34.5461 22.1329 32C22.1329 29.4539 23.1725 27.0121 25.0229 25.2118C26.8734 23.4114 29.3831 22.4 32 22.4ZM32 27.2C30.6915 27.2 29.4367 27.7057 28.5115 28.6059C27.5862 29.5061 27.0665 30.727 27.0665 32C27.0665 33.273 27.5862 34.4939 28.5115 35.3941C29.4367 36.2943 30.6915 36.8 32 36.8C33.3085 36.8 34.5633 36.2943 35.4885 35.3941C36.4138 34.4939 36.9335 33.273 36.9335 32C36.9335 30.727 36.4138 29.5061 35.4885 28.6059C34.5633 27.7057 33.3085 27.2 32 27.2ZM27.0665 56C26.4498 56 25.9318 55.568 25.8331 54.992L24.9204 48.632C23.3663 48.032 22.0343 47.216 20.7515 46.256L14.6093 48.68C14.0666 48.872 13.4006 48.68 13.1046 48.152L8.17102 39.848C7.85035 39.32 7.99835 38.672 8.46704 38.312L13.6719 34.328L13.4992 32L13.6719 29.6L8.46704 25.688C7.99835 25.328 7.85035 24.68 8.17102 24.152L13.1046 15.848C13.4006 15.32 14.0666 15.104 14.6093 15.32L20.7515 17.72C22.0343 16.784 23.3663 15.968 24.9204 15.368L25.8331 9.008C25.9318 8.432 26.4498 8 27.0665 8H36.9335C37.5502 8 38.0682 8.432 38.1669 9.008L39.0796 15.368C40.6337 15.968 41.9657 16.784 43.2485 17.72L49.3907 15.32C49.9334 15.104 50.5994 15.32 50.8954 15.848L55.829 24.152C56.1497 24.68 56.0017 25.328 55.533 25.688L50.3281 29.6L50.5008 32L50.3281 34.4L55.533 38.312C56.0017 38.672 56.1497 39.32 55.829 39.848L50.8954 48.152C50.5994 48.68 49.9334 48.896 49.3907 48.68L43.2485 46.28C41.9657 47.216 40.6337 48.032 39.0796 48.632L38.1669 54.992C38.0682 55.568 37.5502 56 36.9335 56H27.0665ZM30.1499 12.8L29.2372 19.064C26.2771 19.664 23.6623 21.2 21.7629 23.336L15.818 20.84L13.9679 23.96L19.1728 27.68C18.1861 30.488 18.1861 33.536 19.1728 36.32L13.9433 40.064L15.7933 43.184L21.7876 40.688C23.687 42.8 26.2771 44.336 29.2126 44.912L30.1253 51.2H33.8747L34.7874 44.936C37.7229 44.336 40.313 42.8 42.2124 40.688L48.2067 43.184L50.0567 40.064L44.8272 36.344C45.8139 33.536 45.8139 30.488 44.8272 27.68L50.0321 23.96L48.182 20.84L42.2371 23.336C40.3377 21.2 37.7229 19.664 34.7628 19.088L33.8501 12.8H30.1499Z" fill="currentColor"/>
</svg>
