<svg width="64" height="64" viewBox="0 0 64 64" fill="none" xmlns="http://www.w3.org/2000/svg">
<path d="M32 41.3333C29.5246 41.3333 27.1507 40.35 25.4003 38.5997C23.65 36.8493 22.6667 34.4754 22.6667 32C22.6667 29.5247 23.65 27.1507 25.4003 25.4003C27.1507 23.65 29.5246 22.6667 32 22.6667C34.4754 22.6667 36.8493 23.65 38.5997 25.4003C40.35 27.1507 41.3333 29.5247 41.3333 32C41.3333 34.4754 40.35 36.8493 38.5997 38.5997C36.8493 40.35 34.4754 41.3333 32 41.3333ZM51.8133 34.5867C51.92 33.7333 52 32.88 52 32C52 31.12 51.92 30.24 51.8133 29.3333L57.44 24.9867C57.9467 24.5867 58.08 23.8667 57.76 23.28L52.4267 14.0533C52.1067 13.4667 51.3867 13.2267 50.8 13.4667L44.16 16.1333C42.7733 15.0933 41.3333 14.1867 39.6533 13.52L38.6667 6.45334C38.56 5.81334 38 5.33334 37.3333 5.33334H26.6667C26 5.33334 25.44 5.81334 25.3333 6.45334L24.3467 13.52C22.6667 14.1867 21.2267 15.0933 19.84 16.1333L13.2 13.4667C12.6133 13.2267 11.8933 13.4667 11.5733 14.0533L6.24 23.28C5.89333 23.8667 6.05333 24.5867 6.56 24.9867L12.1867 29.3333C12.08 30.24 12 31.12 12 32C12 32.88 12.08 33.7333 12.1867 34.5867L6.56 39.0133C6.05333 39.4133 5.89333 40.1333 6.24 40.72L11.5733 49.9467C11.8933 50.5333 12.6133 50.7467 13.2 50.5333L19.84 47.84C21.2267 48.9067 22.6667 49.8133 24.3467 50.48L25.3333 57.5467C25.44 58.1867 26 58.6667 26.6667 58.6667H37.3333C38 58.6667 38.56 58.1867 38.6667 57.5467L39.6533 50.48C41.3333 49.7867 42.7733 48.9067 44.16 47.84L50.8 50.5333C51.3867 50.7467 52.1067 50.5333 52.4267 49.9467L57.76 40.72C58.08 40.1333 57.9467 39.4133 57.44 39.0133L51.8133 34.5867Z" fill="currentColor"/>
</svg>
