<svg width="64" height="64" viewBox="0 0 64 64" fill="none" xmlns="http://www.w3.org/2000/svg">
<path d="M32 5.33334C28.4981 5.33334 25.0304 6.0231 21.7951 7.36322C18.5597 8.70335 15.62 10.6676 13.1438 13.1438C8.14283 18.1448 5.33331 24.9276 5.33331 32C5.33331 39.0724 8.14283 45.8552 13.1438 50.8562C15.62 53.3324 18.5597 55.2967 21.7951 56.6368C25.0304 57.9769 28.4981 58.6667 32 58.6667C39.0724 58.6667 45.8552 55.8572 50.8562 50.8562C55.8571 45.8552 58.6666 39.0724 58.6666 32C58.6666 28.4981 57.9769 25.0305 56.6368 21.7951C55.2966 18.5598 53.3324 15.6201 50.8562 13.1438C48.3799 10.6676 45.4402 8.70335 42.2049 7.36322C38.9695 6.0231 35.5019 5.33334 32 5.33334ZM18.8533 48.7467C20 46.3467 26.9866 44 32 44C37.0133 44 44 46.3467 45.1466 48.7467C41.52 51.6267 36.96 53.3333 32 53.3333C27.04 53.3333 22.48 51.6267 18.8533 48.7467ZM48.96 44.88C45.1466 40.24 35.8933 38.6667 32 38.6667C28.1066 38.6667 18.8533 40.24 15.04 44.88C12.32 41.3333 10.6666 36.8533 10.6666 32C10.6666 20.24 20.24 10.6667 32 10.6667C43.76 10.6667 53.3333 20.24 53.3333 32C53.3333 36.8533 51.68 41.3333 48.96 44.88ZM32 16C26.8266 16 22.6666 20.16 22.6666 25.3333C22.6666 30.5067 26.8266 34.6667 32 34.6667C37.1733 34.6667 41.3333 30.5067 41.3333 25.3333C41.3333 20.16 37.1733 16 32 16ZM32 29.3333C30.9391 29.3333 29.9217 28.9119 29.1716 28.1618C28.4214 27.4116 28 26.3942 28 25.3333C28 24.2725 28.4214 23.2551 29.1716 22.5049C29.9217 21.7548 30.9391 21.3333 32 21.3333C33.0608 21.3333 34.0783 21.7548 34.8284 22.5049C35.5786 23.2551 36 24.2725 36 25.3333C36 26.3942 35.5786 27.4116 34.8284 28.1618C34.0783 28.9119 33.0608 29.3333 32 29.3333Z" fill="currentColor"/>
</svg>
